<svg id="Layer_1" data-name="Layer 1" xmlns="http://www.w3.org/2000/svg" viewBox="0 0 389.94 88.3"><defs><style>.cls-1{fill:#5031a9;}.cls-2{fill:#f6a246;}</style></defs><title>TMCC_2017Logo</title><path class="cls-1" d="M.87,18.21h75V36.6H49.65v67H26.82v-67H.87Z" transform="translate(-0.87 -16.87)"/><path class="cls-1" d="M85.07,18.21H109.9l25.32,49.94,25.2-49.94h24.82v85.38H165l-.12-54.08L142.58,95.06H127.86L105.41,49.51v54.08H85.07Z" transform="translate(-0.87 -16.87)"/><path class="cls-1" d="M255.35,38.85a24.65,24.65,0,0,0-11.6-3.1,23.13,23.13,0,0,0-20.59,12.12A25.64,25.64,0,0,0,220,60.47a25.71,25.71,0,0,0,3.12,12.61A23.13,23.13,0,0,0,243.75,85.2,26.94,26.94,0,0,0,255,82.52a35.6,35.6,0,0,0,10.48-7.31l13.35,14a53.46,53.46,0,0,1-16.9,11.63,47.8,47.8,0,0,1-19.4,4.32,47.25,47.25,0,0,1-23.45-5.84,43.25,43.25,0,0,1-22.46-38.61,42,42,0,0,1,6.12-22.41,43.2,43.2,0,0,1,16.77-15.72,50.82,50.82,0,0,1,43.1-1.76,47.66,47.66,0,0,1,16.09,10.78L265.45,47.2A32.56,32.56,0,0,0,255.35,38.85Z" transform="translate(-0.87 -16.87)"/><path class="cls-1" d="M340.17,38.85a24.65,24.65,0,0,0-11.6-3.1A23.1,23.1,0,0,0,308,47.87a25.64,25.64,0,0,0-3.12,12.6A25.71,25.71,0,0,0,308,73.08,23.1,23.1,0,0,0,328.57,85.2a27,27,0,0,0,11.23-2.68,35.56,35.56,0,0,0,10.47-7.31l13.35,14a53.35,53.35,0,0,1-16.9,11.63,47.8,47.8,0,0,1-19.4,4.32,47.28,47.28,0,0,1-23.45-5.84,43.22,43.22,0,0,1-22.45-38.61,42,42,0,0,1,6.11-22.41,43.23,43.23,0,0,1,16.78-15.72,50.82,50.82,0,0,1,43.1-1.76A47.76,47.76,0,0,1,363.5,31.61L350.27,47.2A32.33,32.33,0,0,0,340.17,38.85Z" transform="translate(-0.87 -16.87)"/><path class="cls-2" d="M387.82,86.42a10.06,10.06,0,0,1,3,7.55,10.26,10.26,0,0,1-3,7.61,10.46,10.46,0,0,1-7.73,3A10.23,10.23,0,0,1,369.48,94a10.18,10.18,0,0,1,2.94-7.55,10.36,10.36,0,0,1,7.67-2.93A10.59,10.59,0,0,1,387.82,86.42Z" transform="translate(-0.87 -16.87)"/></svg>