<svg xmlns="http://www.w3.org/2000/svg" width="308.09" height="70.53" viewBox="0 0 308.09 70.53"><title>LOGO-v2</title><path d="M44.44,87.39a17.08,17.08,0,0,1-6,2.7A30.27,30.27,0,0,1,31,91Q20.79,91,15.22,85.8T9.65,70.53V47.09H.85V34.36h8.8V20.47H26.2V34.36H40.41V47.09H26.2V70.31a7.77,7.77,0,0,0,1.85,5.57,6.88,6.88,0,0,0,5.25,2A10.59,10.59,0,0,0,40,75.72Z" transform="translate(-0.85 -20.47)" style="fill:#333"/><path d="M143.86,38.55q6.31,6.31,6.31,18.93V90.15H133.63V60q0-6.8-2.81-10.13t-8-3.34a11.81,11.81,0,0,0-9.23,3.76q-3.39,3.76-3.39,11.19V90.15H93.65V60q0-13.47-10.82-13.47a11.66,11.66,0,0,0-9.12,3.76q-3.4,3.76-3.4,11.19V90.15H53.77V33.09h15.8v6.57a20.86,20.86,0,0,1,7.8-5.51,26.25,26.25,0,0,1,10.12-1.91,24.56,24.56,0,0,1,10.93,2.39,19.35,19.35,0,0,1,7.85,6.94,23.39,23.39,0,0,1,8.85-6.89,27.89,27.89,0,0,1,11.72-2.44Q137.55,32.24,143.86,38.55Z" transform="translate(-0.85 -20.47)" style="fill:#333"/><path d="M176.84,87.23a28,28,0,0,1-15.43-25.61A28,28,0,0,1,176.84,36a35.24,35.24,0,0,1,16.39-3.76A31.86,31.86,0,0,1,209,36a22.37,22.37,0,0,1,9.81,10.77L206,53.66q-4.46-7.84-12.84-7.85a14.52,14.52,0,0,0-10.71,4.25q-4.24,4.24-4.24,11.56t4.24,11.56a14.51,14.51,0,0,0,10.71,4.24q8.49,0,12.84-7.85l12.83,7A22.78,22.78,0,0,1,209,87.18,31.45,31.45,0,0,1,193.23,91,35.12,35.12,0,0,1,176.84,87.23Z" transform="translate(-0.85 -20.47)" style="fill:#333"/><path d="M238.78,87.23a28.17,28.17,0,0,1-11.35-10.45,28.5,28.5,0,0,1-4.08-15.16A28,28,0,0,1,238.78,36a35.21,35.21,0,0,1,16.39-3.76A31.86,31.86,0,0,1,270.92,36a22.46,22.46,0,0,1,9.81,10.77l-12.84,6.89q-4.45-7.84-12.83-7.85a14.52,14.52,0,0,0-10.71,4.25q-4.24,4.24-4.24,11.56t4.24,11.56a14.51,14.51,0,0,0,10.71,4.24q8.49,0,12.83-7.85l12.84,7a22.88,22.88,0,0,1-9.81,10.61A31.45,31.45,0,0,1,255.17,91,35.09,35.09,0,0,1,238.78,87.23Z" transform="translate(-0.85 -20.47)" style="fill:#333"/><path d="M291.33,88a10,10,0,0,1-3-7.42,9.67,9.67,0,0,1,3-7.37,10.93,10.93,0,0,1,14.63,0,9.67,9.67,0,0,1,3,7.37A10,10,0,0,1,306,88a10.49,10.49,0,0,1-14.63,0Z" transform="translate(-0.85 -20.47)" style="fill:#e67e22"/></svg>