<svg id="Layer_1" data-name="Layer 1" xmlns="http://www.w3.org/2000/svg" viewBox="0 0 242.53 59.29"><defs><style>.cls-1{fill:#fd9f44;}</style></defs><title>tmcc-logo-v3</title><path d="M51,67.38a22.33,22.33,0,0,1-5.88,2.43,25.69,25.69,0,0,1-6.49.84,15.34,15.34,0,0,1-10.78-3.8Q23.65,63.05,23.64,56V34H17V24.62h6.62V11.54H37.16V24.62h12.9v9.45H37.16V53.68c0,3.66,1.44,5.48,4.33,5.48a15.43,15.43,0,0,0,6.63-1.76Z" transform="translate(-17.02 -11.54)"/><path d="M134.57,26.87q4.65,4.9,4.64,13.3V70H125.69V44.14A9.85,9.85,0,0,0,123.22,37a8.91,8.91,0,0,0-6.72-2.57,9.75,9.75,0,0,0-7.68,3.45A13,13,0,0,0,106,46.53V70H92.47V44.14A10,10,0,0,0,90,37a8.66,8.66,0,0,0-6.67-2.61,9.9,9.9,0,0,0-7.73,3.45,12.87,12.87,0,0,0-2.87,8.66V70H59.16V22.5H72.77v8.21q5-8.57,16.08-8.75A17.4,17.4,0,0,1,99,24.84a15.58,15.58,0,0,1,5.92,8.08,17.27,17.27,0,0,1,6.67-8.13A20,20,0,0,1,122.07,22Q129.93,22,134.57,26.87Z" transform="translate(-17.02 -11.54)"/><path d="M172.08,33.63a10.83,10.83,0,0,0-8.35,3.49,13.06,13.06,0,0,0-3.23,9.23,13.5,13.5,0,0,0,3.19,9.32,10.38,10.38,0,0,0,8.13,3.58q7.41,0,11-5.57l9.37,6.37a20.21,20.21,0,0,1-8.44,7.77,27.8,27.8,0,0,1-12.68,2.74,25.9,25.9,0,0,1-12.64-3A21.29,21.29,0,0,1,150,59.07a25.45,25.45,0,0,1-3-12.63,25.91,25.91,0,0,1,3-12.77,21.36,21.36,0,0,1,8.57-8.57,26,26,0,0,1,12.76-3.05,27.05,27.05,0,0,1,12.11,2.61A21.31,21.31,0,0,1,191.87,32l-9.19,6.62A13,13,0,0,0,172.08,33.63Z" transform="translate(-17.02 -11.54)"/><path d="M220.32,33.63A10.83,10.83,0,0,0,212,37.12a13.06,13.06,0,0,0-3.22,9.23,13.49,13.49,0,0,0,3.18,9.32,10.38,10.38,0,0,0,8.13,3.58q7.41,0,11-5.57l9.37,6.37A20.21,20.21,0,0,1,232,67.82a27.77,27.77,0,0,1-12.68,2.74,25.93,25.93,0,0,1-12.64-3,21.29,21.29,0,0,1-8.52-8.49,25.55,25.55,0,0,1-3.05-12.63,26,26,0,0,1,3.05-12.77,21.42,21.42,0,0,1,8.57-8.57,26,26,0,0,1,12.77-3.05,27,27,0,0,1,12.1,2.61A21.31,21.31,0,0,1,240.11,32l-9.19,6.62A13,13,0,0,0,220.32,33.63Z" transform="translate(-17.02 -11.54)"/><path class="cls-1" d="M257.65,58.72a6.9,6.9,0,0,1,1.9,5,7,7,0,0,1-1.9,5.08,6.5,6.5,0,0,1-4.9,2,6.42,6.42,0,0,1-4.86-2,7,7,0,0,1-1.95-5,6.82,6.82,0,0,1,1.95-5,7.11,7.11,0,0,1,9.76,0Z" transform="translate(-17.02 -11.54)"/></svg>